<?xml version="1.0" encoding="utf-8"?>
<!-- Generator: Adobe Illustrator 23.1.0, SVG Export Plug-In . SVG Version: 6.00 Build 0)  -->
<svg version="1.1" id="Layer_1" xmlns="http://www.w3.org/2000/svg" xmlns:xlink="http://www.w3.org/1999/xlink" x="0px" y="0px"
	 viewBox="0 0 485 125" style="enable-background:new 0 0 485 125;" xml:space="preserve">
<style type="text/css">
	.st0{fill:#FFFFFF;}
	.st1{fill:#0FDDAF;}
</style>
<g>
	<path class="st0" d="M34.2,75.4c0.1-0.1,0.1-0.1,0.2-0.2c3.5-3.4,6.6-7.7,6.8-12.9c0.4-7.5-4.7-11.9-9.4-16.6c-2.2-2.2-3.8-5-4.6-8
		c-1.4-5-0.6-10.5,2.2-14.9c7.7-11.7,26-10.2,31.6,2.7c3,6.9,1.1,14.7-4,20c-4.5,4.7-9.7,9-9.7,16.2c0,6.5,4.1,11,8.2,15.3
		c4.1,4.3,6.7,9.3,6.4,15.3c-0.3,5.5-3.4,10.6-8,13.6c-10,6.4-24.1,0.4-26.9-11.1C25.4,87.6,29.1,80.6,34.2,75.4z"/>
	<circle class="st0" cx="82.7" cy="61.9" r="17.8"/>
</g>
<g>
	<path class="st0" d="M126.2,86.3V35.2h1c5.8,0,10.5,4.7,10.5,10.5v40.6H126.2z"/>
	<path class="st0" d="M127.2,85.2V36.2h0c5.2,0,9.4,4.2,9.4,9.4v39.6H127.2z"/>
	<path class="st0" d="M173.7,108.5c-13.3,0-22.5-6.1-25.8-17.1l-0.4-1.3h11.7l0.3,0.6c2.5,6.2,9.1,7.5,14.2,7.5
		c10.5,0,15.7-5.4,15.7-16.5v-2.2c-3.9,4.9-10.2,7.7-17.4,7.7c-12.4,0-25.8-8.3-25.8-26.4c0-15.6,11.5-26.8,27.4-26.8
		c16.3,0,27.2,10.9,27.2,27.2v20.2C200.7,98.6,190.8,108.5,173.7,108.5z M173.5,44.7c-9.3,0-15.9,6.6-15.9,16.1
		c0,9.3,6.4,15.6,15.9,15.6s15.9-6.3,15.9-15.6C189.3,51.3,182.8,44.7,173.5,44.7z"/>
	<path class="st0" d="M190.3,76.4h-0.2c-3.4,6-10,9.7-18.3,9.7c-12.7,0-24.8-8.7-24.8-25.4c0-14.9,10.9-25.8,26.4-25.8
		c15.5,0,26.2,10.4,26.2,26.2v20.2c0,18.9-11.5,26.2-26,26.2c-12,0-21.4-5.1-24.8-16.4h9.6c2.3,5.7,8,8.1,15.2,8.1
		c10,0,16.7-4.8,16.7-17.6V76.4z M173.5,43.6c-10.1,0-16.9,7.1-16.9,17.1c0,9.9,6.8,16.6,16.9,16.6c10.1,0,16.9-6.7,16.9-16.6
		C190.3,50.8,183.6,43.6,173.5,43.6z"/>
	<path class="st0" d="M234.5,87.6c-15.8,0-25.3-9.6-25.3-25.7V35.2h11.5v26.6c0,9.6,4.9,15,13.8,15c8.9,0,13.8-5.3,13.8-15V35.2
		h11.5v26.6C259.7,77.9,250.3,87.6,234.5,87.6z"/>
	<path class="st0" d="M249.3,36.2h9.4v25.6c0,16.3-9.7,24.7-24.2,24.7c-14.5,0-24.2-8.3-24.2-24.7V36.2h9.4v25.6
		c0,10.6,5.9,16,14.8,16c8.9,0,14.8-5.4,14.8-16V36.2z"/>
	<path class="st0" d="M293.4,87.6c-12.8,0-25.8-9.2-25.8-26.8c0-15.6,11.5-26.8,27.4-26.8c16,0,27.2,11.2,27.2,27.2v25.2h-10.7v-7.6
		C307.8,84.3,301.3,87.6,293.4,87.6z M295,44.7c-9.3,0-15.9,6.6-15.9,16.1s6.5,16.1,15.9,16.1c9.3,0,15.9-6.6,15.9-16.1
		S304.4,44.7,295,44.7z"/>
	<path class="st0" d="M321.3,85.2h-8.6V75h-0.2c-3,7-9.9,11.5-19,11.5c-12.7,0-24.8-9.1-24.8-25.8c0-14.9,10.9-25.8,26.4-25.8
		c15.5,0,26.2,10.5,26.2,26.2V85.2z M311.9,60.7c0-9.9-6.8-17.1-16.9-17.1c-10.1,0-16.9,7.1-16.9,17.1c0,9.9,6.8,17.1,16.9,17.1
		C305.2,77.8,311.9,70.7,311.9,60.7z"/>
	<path class="st0" d="M330.6,86.3v-9.2l30.2-31.4h-28.7V35.2h44.7v1c0,5.3-2,10.2-5.7,14l-24.5,25.5h31.2v10.5H330.6z"/>
	<path class="st0" d="M331.6,85.2v-7.7L363,44.8v-0.2h-29.9v-8.4h42.7v0c0,5-1.9,9.7-5.4,13.3l-26,27.1v0.2h32.4v8.4H331.6z"/>
	<path class="st0" d="M386.6,86.3V35.2h1c5.8,0,10.5,4.7,10.5,10.5v40.6H386.6z"/>
	<path class="st0" d="M387.6,85.2V36.2h0c5.2,0,9.4,4.2,9.4,9.4v39.6H387.6z"/>
	<path class="st0" d="M433.2,87.6c-15.9,0-27.4-11.3-27.4-26.8s11.5-26.8,27.4-26.8c15.9,0,27.4,11.3,27.4,26.8
		S449.1,87.6,433.2,87.6z M433.2,44.7c-9.3,0-15.9,6.6-15.9,16.1s6.5,16.1,15.9,16.1c9.3,0,15.9-6.6,15.9-16.1
		S442.6,44.7,433.2,44.7z"/>
	<path class="st0" d="M434.1,86.5c-15.5,0-26.4-10.9-26.4-25.8s10.9-25.8,26.4-25.8c15.5,0,26.4,10.9,26.4,25.8
		S449.6,86.5,434.1,86.5z M451,60.7c0-9.9-6.8-17.1-16.9-17.1c-10.1,0-16.9,7.1-16.9,17.1c0,9.9,6.8,17.1,16.9,17.1
		C444.2,77.8,451,70.7,451,60.7z"/>
	<path class="st0" d="M131.7,15.2c1.9,0,3.5,0.7,4.8,2c1.3,1.3,2,3,2,4.9c0,1.9-0.7,3.5-2,4.8c-1.3,1.3-2.9,2-4.8,2
		c-1.9,0-3.5-0.7-4.9-2c-1.3-1.4-2-3-2-4.9c0-1.9,0.7-3.4,2-4.7C128.2,15.9,129.8,15.2,131.7,15.2z"/>
	<path class="st0" d="M392.6,15.2c1.9,0,3.5,0.7,4.8,2c1.3,1.3,2,3,2,4.9c0,1.9-0.7,3.5-2,4.8c-1.3,1.3-2.9,2-4.8,2
		c-1.9,0-3.5-0.7-4.9-2c-1.3-1.4-2-3-2-4.9c0-1.9,0.7-3.4,2-4.7C389.1,15.9,390.7,15.2,392.6,15.2z"/>
</g>
</svg>
